<svg xmlns="http://www.w3.org/2000/svg" viewBox="0 0 1000 690" width="1000" height="690">
  <path d="M954.55,609.03 L933.33,658.64 L904.17,645.56 L889.29,602.35 L902.26,578.49 L943.62,553.97 L954.55,609.03 Z M570.94,80.78 L615.77,111.05 L648.73,106.05 L704.93,135.33 L719.30,140.90 L737.83,139.54 L768.15,156.36 L860.71,168.19 L828.24,212.16 L820.08,257.91 L802.45,268.87 L773.18,262.96 L775.24,279.28 L728.27,315.36 L727.32,344.44 L757.99,334.38 L780.05,362.54 L777.40,380.68 L796.31,404.79 L774.04,424.35 L790.59,474.04 L825.40,482.18 L818.05,510.06 L759.86,546.33 L633.17,528.95 L539.61,549.78 L532.26,588.45 L457.79,596.77 L385.52,567.73 L362.16,581.61 L243.92,552.43 L218.31,527.46 L251.53,488.94 L263.76,361.01 L197.48,293.62 L150.10,261.13 L51.93,236.43 L45.45,189.61 L128.74,175.64 L236.61,192.16 L216.25,119.48 L276.89,147.02 L426.45,96.95 L445.73,44.33 L501.91,31.36 L511.21,53.94 L541.07,55.00 L570.94,80.78 Z" fill="rgba(255,255,255,0.06)" stroke="rgba(255,255,255,0.55)" stroke-width="1.5" stroke-linejoin="round"/>
</svg>