<svg xmlns="http://www.w3.org/2000/svg" viewBox="0 0 1000 1070" width="1000" height="1070">
  <path d="M545.48,910.81 L622.48,958.27 L732.11,950.24 L836.93,960.24 L833.53,984.75 L910.29,967.85 L892.68,1009.39 L689.85,1021.36 L691.26,998.13 L519.42,970.66 L545.48,910.81 Z M954.55,85.93 L910.94,174.07 L877.46,189.86 L791.65,185.86 L718.15,172.55 L547.57,209.16 L645.20,288.32 L573.65,311.28 L495.20,311.42 L420.68,238.89 L394.25,269.79 L425.72,353.91 L496.19,420.00 L443.09,450.86 L521.54,515.77 L591.26,556.61 L593.37,636.18 L463.08,598.86 L504.63,670.69 L415.19,685.47 L468.61,809.76 L375.05,811.52 L259.55,750.26 L206.73,637.59 L182.08,543.89 L127.15,479.15 L54.99,398.84 L45.45,358.74 L110.95,290.43 L119.40,244.66 L165.18,224.24 L168.00,187.24 L260.14,174.77 L313.83,143.99 L390.16,146.72 L413.33,122.17 L440.18,117.49 L544.36,121.56 L657.13,82.86 L756.37,132.07 L884.39,118.77 L885.93,48.64 L954.55,85.93 Z" fill="rgba(255,255,255,0.06)" stroke="rgba(255,255,255,0.55)" stroke-width="1.5" stroke-linejoin="round"/>
</svg>