<svg xmlns="http://www.w3.org/2000/svg" viewBox="0 0 1000 942" width="1000" height="942">
  <path d="M345.96,42.82 L379.39,79.28 L376.25,104.66 L388.62,120.58 L387.60,136.46 L365.28,132.28 L374.00,166.57 L404.56,186.27 L447.79,208.02 L428.06,222.13 L415.98,251.23 L446.11,263.00 L475.44,278.26 L516.01,295.71 L558.65,299.74 L576.59,315.57 L600.62,318.53 L638.04,325.78 L663.95,325.26 L667.51,312.95 L663.41,293.18 L665.82,279.78 L684.79,273.24 L687.40,297.74 L688.07,303.97 L716.34,315.78 L735.89,310.92 L762.16,313.00 L787.54,312.08 L789.72,292.97 L777.06,283.04 L802.15,279.15 L830.46,256.02 L866.31,236.21 L892.40,243.85 L914.58,230.75 L929.16,250.09 L918.66,263.16 L952.20,267.81 L954.55,279.60 L943.64,285.31 L946.19,304.45 L923.96,298.82 L883.69,320.32 L884.64,338.12 L867.47,364.21 L865.90,379.37 L852.03,405.02 L827.72,397.93 L826.51,430.13 L819.48,440.72 L822.77,453.93 L807.42,461.31 L791.04,411.96 L782.45,412.06 L777.37,431.94 L760.33,415.82 L769.94,398.12 L783.85,396.32 L798.20,369.99 L780.26,364.68 L751.41,365.14 L721.82,360.88 L719.07,339.25 L704.22,337.71 L679.59,324.27 L668.60,345.38 L691.05,361.84 L671.60,373.43 L664.70,384.77 L683.84,393.11 L678.55,411.85 L689.33,435.24 L694.17,460.86 L689.72,472.22 L668.56,471.83 L630.21,478.29 L632.00,501.69 L615.39,520.09 L570.63,541.03 L535.82,577.63 L512.43,597.25 L481.44,617.62 L481.39,631.93 L465.88,639.59 L437.86,650.74 L423.33,652.38 L414.01,676.11 L420.48,716.57 L422.13,742.37 L408.95,771.93 L408.81,824.78 L392.71,826.29 L378.56,850.01 L388.02,860.27 L359.66,869.08 L349.19,890.24 L336.70,899.18 L307.25,870.13 L292.85,826.57 L280.92,795.20 L270.02,780.48 L253.49,750.60 L245.78,711.69 L240.40,692.26 L212.10,649.53 L199.22,589.25 L189.92,549.44 L190.03,511.76 L184.00,482.63 L138.73,501.25 L116.81,497.52 L76.17,459.82 L91.13,448.57 L81.94,436.36 L45.45,409.96 L66.17,389.21 L134.62,389.29 L128.45,362.58 L110.97,346.80 L107.43,322.86 L87.07,308.89 L121.35,276.28 L157.47,278.64 L190.01,246.03 L209.51,214.46 L239.70,183.25 L239.22,161.07 L265.74,143.08 L240.64,127.72 L229.84,106.67 L218.82,79.41 L234.07,66.00 L281.25,73.59 L315.92,68.96 L345.96,42.82 Z" fill="rgba(255,255,255,0.06)" stroke="rgba(255,255,255,0.55)" stroke-width="1.5" stroke-linejoin="round"/>
</svg>