<svg xmlns="http://www.w3.org/2000/svg" viewBox="0 0 1000 346" width="1000" height="346">
  <path d="M550.72,327.88 L542.36,328.26 L515.99,314.35 L534.52,310.44 L544.96,316.49 L551.91,322.52 L550.72,327.88 Z M624.67,325.90 L607.65,330.27 L605.27,327.89 L607.06,321.14 L615.60,309.03 L635.25,301.14 L637.27,305.05 L637.63,311.07 L624.67,325.90 Z M494.76,285.31 L501.93,290.60 L514.21,288.98 L519.14,297.42 L496.16,301.41 L482.40,304.08 L471.71,303.92 L478.54,292.49 L489.44,292.33 L494.76,285.31 Z M594.21,285.28 L591.30,296.31 L561.43,301.95 L535.00,299.50 L534.93,292.24 L550.71,288.11 L563.17,294.07 L576.40,292.56 L594.21,285.28 Z M310.39,259.14 L348.47,261.11 L352.85,252.93 L389.72,262.48 L396.96,275.35 L426.77,278.97 L451.15,290.77 L428.47,298.34 L406.61,290.34 L388.63,290.88 L368.00,289.41 L349.40,285.84 L326.38,278.26 L311.79,276.29 L303.52,278.77 L267.28,270.60 L263.83,262.06 L245.64,260.60 L259.28,241.63 L283.40,242.80 L299.44,250.56 L307.68,252.07 L310.39,259.14 Z M829.15,247.95 L818.93,261.47 L816.99,246.52 L820.52,239.38 L824.68,232.67 L829.20,238.48 L829.15,247.95 Z M680.58,193.23 L673.14,199.83 L659.40,196.18 L655.53,187.64 L675.64,186.69 L680.58,193.23 Z M744.62,185.98 L751.84,201.17 L735.06,192.98 L718.46,191.32 L707.24,192.63 L693.49,191.93 L698.20,181.01 L722.75,180.19 L744.62,185.98 Z M817.60,147.42 L823.15,179.54 L843.72,191.42 L860.33,170.36 L883.13,158.37 L900.80,158.36 L917.80,165.28 L932.54,172.38 L953.88,176.18 L954.21,240.89 L954.55,305.61 L936.85,289.31 L916.66,285.32 L911.77,290.97 L886.59,291.58 L895.03,275.42 L907.54,269.91 L902.36,248.32 L892.81,231.65 L854.28,214.83 L837.90,213.17 L808.05,194.82 L802.18,204.47 L794.56,206.22 L790.04,198.94 L789.98,190.31 L774.80,180.56 L796.20,173.40 L810.38,173.79 L808.71,168.52 L779.62,168.48 L771.74,156.66 L753.99,152.99 L745.58,143.17 L772.37,138.36 L782.55,131.88 L814.46,140.04 L817.60,147.42 Z M640.66,96.35 L624.69,116.05 L609.75,119.87 L590.62,115.98 L557.50,116.97 L540.14,119.83 L537.31,134.86 L555.10,152.52 L565.83,143.53 L602.89,136.77 L601.26,145.92 L592.60,143.03 L583.97,154.67 L566.48,162.36 L585.29,187.81 L581.65,194.63 L599.52,217.55 L599.35,230.60 L588.74,236.44 L580.95,229.45 L590.55,213.19 L571.05,220.88 L566.10,215.39 L568.68,207.72 L554.35,196.08 L555.83,176.72 L542.57,182.76 L544.25,205.91 L545.06,234.32 L532.46,237.21 L523.92,231.38 L529.62,213.10 L526.54,193.94 L518.18,193.79 L512.01,180.19 L520.22,167.18 L523.05,151.42 L533.04,121.48 L537.21,113.30 L554.11,98.55 L569.63,104.41 L594.69,107.17 L617.54,106.33 L637.19,91.91 L640.66,96.35 Z M709.18,102.06 L708.14,119.41 L697.89,117.47 L694.86,129.55 L703.05,140.03 L697.49,142.42 L689.47,129.84 L683.56,104.45 L687.56,88.59 L694.16,81.36 L695.58,92.21 L707.32,93.95 L709.18,102.06 Z M494.28,88.25 L516.56,106.63 L493.01,108.97 L486.38,122.51 L487.24,140.51 L468.13,154.09 L467.61,173.86 L459.95,204.23 L457.02,197.17 L434.44,206.10 L426.57,193.96 L412.40,192.84 L402.49,186.48 L378.86,193.62 L371.61,184.01 L358.59,185.10 L342.20,182.81 L339.16,156.18 L329.25,150.66 L319.70,133.67 L316.94,116.30 L319.25,97.90 L331.06,84.70 L334.38,97.97 L347.97,109.19 L360.79,105.15 L373.48,106.58 L385.06,96.54 L394.59,94.80 L413.39,100.37 L429.60,96.13 L439.79,68.52 L447.44,61.61 L454.33,39.03 L477.18,39.04 L494.41,42.38 L483.10,60.32 L497.71,79.12 L494.28,88.25 Z M254.63,240.76 L232.62,241.18 L215.88,224.58 L190.37,208.35 L181.86,196.31 L166.81,180.14 L156.94,165.26 L141.83,137.46 L124.37,120.91 L118.53,103.84 L111.21,88.33 L93.28,75.83 L82.90,58.84 L67.93,47.72 L47.20,25.84 L45.45,15.73 L58.25,16.53 L89.02,20.36 L106.59,39.78 L121.96,53.25 L132.92,61.51 L151.75,82.86 L171.96,83.17 L188.66,96.77 L200.16,113.40 L215.29,122.47 L207.33,138.68 L218.72,145.58 L225.86,146.09 L229.23,159.94 L236.15,171.02 L250.74,172.78 L260.41,185.35 L255.42,210.04 L254.63,240.76 Z" fill="rgba(255,255,255,0.06)" stroke="rgba(255,255,255,0.55)" stroke-width="1.5" stroke-linejoin="round"/>
</svg>