<svg xmlns="http://www.w3.org/2000/svg" viewBox="0 0 1000 895" width="1000" height="895">
  <path d="M725.16,729.42 L697.25,790.43 L708.85,814.45 L692.58,854.32 L633.31,825.12 L593.90,816.75 L485.73,777.34 L496.58,737.54 L587.27,744.62 L666.33,736.18 L725.16,729.42 Z M236.11,498.49 L282.60,553.53 L271.72,656.06 L236.48,651.17 L204.87,677.05 L175.53,656.49 L172.42,562.96 L154.73,518.64 L197.36,522.52 L236.11,498.49 Z M481.51,67.65 L592.33,87.67 L583.93,125.85 L602.50,158.86 L540.80,147.56 L477.79,175.08 L482.08,213.56 L472.59,235.65 L498.00,275.11 L570.66,314.16 L609.64,378.25 L695.88,440.72 L756.61,440.24 L775.49,457.38 L753.75,472.82 L823.16,500.84 L880.06,524.29 L946.52,564.72 L954.55,579.20 L940.06,606.96 L897.05,570.76 L829.72,558.01 L797.11,608.15 L853.12,636.89 L843.92,677.34 L811.55,681.94 L770.15,748.43 L737.84,754.40 L738.15,730.70 L753.96,689.12 L770.80,672.56 L740.54,627.63 L716.88,588.54 L684.71,578.88 L661.83,545.42 L612.03,531.33 L578.50,500.17 L521.16,495.15 L460.60,460.15 L389.70,409.69 L337.01,365.03 L312.83,288.40 L274.27,279.38 L211.23,253.80 L175.55,264.27 L130.77,300.25 L98.56,305.93 L107.43,272.28 L65.42,262.45 L45.45,202.46 L72.32,178.85 L49.52,149.74 L52.71,127.84 L86.06,144.44 L123.42,140.76 L166.87,114.46 L180.30,126.75 L217.22,124.29 L234.00,93.02 L291.35,102.74 L325.49,89.66 L331.64,57.88 L378.59,68.90 L387.60,54.16 L464.19,40.68 L481.51,67.65 Z" fill="rgba(255,255,255,0.06)" stroke="rgba(255,255,255,0.55)" stroke-width="1.5" stroke-linejoin="round"/>
</svg>