<svg xmlns="http://www.w3.org/2000/svg" viewBox="0 0 1000 900" width="1000" height="900">
  <path d="M340.13,683.33 L347.34,702.65 L315.62,736.74 L292.49,718.67 L263.61,731.76 L248.65,764.72 L211.93,748.67 L212.39,721.95 L243.55,688.34 L275.59,694.85 L298.76,671.17 L340.13,683.33 Z M697.24,514.71 L676.02,559.67 L685.84,587.90 L656.49,627.61 L584.50,654.12 L485.45,657.57 L405.18,721.89 L367.32,700.24 L364.98,658.12 L266.99,670.55 L200.31,697.09 L134.35,698.17 L191.47,739.62 L153.88,835.38 L117.45,859.09 L90.19,837.19 L104.01,786.42 L68.34,770.03 L45.45,731.39 L98.73,714.04 L128.28,678.62 L184.95,649.49 L226.27,610.97 L338.43,594.17 L398.68,605.69 L457.63,505.53 L495.20,532.44 L577.86,476.09 L609.90,454.20 L645.31,385.30 L635.65,321.95 L659.45,286.36 L719.36,276.02 L750.08,354.16 L748.41,399.84 L696.28,456.57 L697.24,514.71 Z M862.54,118.51 L902.16,130.53 L942.02,106.65 L954.55,169.90 L870.96,185.32 L821.61,241.27 L733.02,202.76 L702.36,264.41 L639.69,265.26 L631.94,209.24 L659.81,165.89 L720.01,162.76 L736.43,84.82 L753.09,40.91 L819.30,99.57 L862.54,118.51 Z" fill="rgba(255,255,255,0.06)" stroke="rgba(255,255,255,0.55)" stroke-width="1.5" stroke-linejoin="round"/>
</svg>