<svg xmlns="http://www.w3.org/2000/svg" viewBox="0 0 1000 902" width="1000" height="902">
  <path d="M721.82,41.27 L756.30,65.55 L810.68,61.59 L869.92,74.22 L894.76,74.83 L916.32,111.46 L919.72,146.24 L939.48,206.61 L954.55,218.76 L944.06,240.98 L869.21,250.62 L843.34,271.77 L810.26,276.76 L807.80,319.10 L740.93,341.73 L719.06,370.36 L672.25,385.73 L615.14,394.45 L522.78,436.65 L523.27,504.41 L514.57,504.41 L514.56,504.41 L515.88,535.04 L480.52,536.89 L462.09,549.90 L436.12,549.90 L415.43,542.47 L367.31,548.61 L348.69,593.18 L330.82,597.37 L303.92,669.46 L224.42,731.17 L205.55,810.14 L182.12,835.83 L175.25,856.43 L46.45,861.00 L45.45,860.91 L48.15,834.41 L70.12,818.83 L88.83,789.03 L85.15,769.67 L104.81,729.32 L136.64,692.97 L155.89,683.75 L171.03,650.40 L172.39,619.93 L193.03,584.58 L231.13,563.74 L267.38,505.34 L268.43,504.54 L297.18,482.58 L350.37,476.26 L395.43,437.17 L424.10,421.94 L471.84,374.19 L457.55,303.04 L479.28,253.84 L486.95,223.73 L523.73,185.09 L581.11,158.97 L623.53,135.33 L661.74,76.12 L679.72,41.00 L721.82,41.27 Z" fill="rgba(255,255,255,0.06)" stroke="rgba(255,255,255,0.55)" stroke-width="1.5" stroke-linejoin="round"/>
</svg>