<svg xmlns="http://www.w3.org/2000/svg" viewBox="0 0 1000 628" width="1000" height="628">
  <path d="M71.64,165.23 L75.32,113.11 L45.45,81.36 L148.90,28.55 L238.38,41.75 L336.56,41.29 L414.36,53.78 L475.08,49.95 L593.26,52.37 L622.40,80.82 L757.01,114.08 L783.59,98.26 L865.87,131.36 L950.63,121.87 L954.55,164.38 L885.25,213.12 L791.56,228.59 L785.04,253.21 L740.09,293.78 L711.91,353.34 L740.43,395.16 L698.13,427.81 L682.32,475.38 L627.11,489.96 L575.33,546.23 L482.52,547.35 L412.82,545.96 L367.02,571.80 L339.10,599.45 L303.32,593.38 L276.24,568.66 L255.51,526.56 L187.25,515.23 L181.15,491.00 L208.25,463.56 L218.29,443.66 L193.07,421.91 L213.26,373.83 L183.97,329.95 L215.56,323.93 L218.50,289.34 L230.37,278.63 L231.32,221.54 L265.10,201.73 L244.66,165.02 L202.05,162.46 L189.53,171.70 L146.34,171.79 L128.01,135.96 L98.17,146.63 L71.64,165.23 Z" fill="rgba(255,255,255,0.06)" stroke="rgba(255,255,255,0.55)" stroke-width="1.5" stroke-linejoin="round"/>
</svg>