<svg xmlns="http://www.w3.org/2000/svg" viewBox="0 0 1000 1793" width="1000" height="1793">
  <path d="M622.03,992.58 L522.66,941.76 L427.98,943.82 L444.21,856.86 L346.73,857.51 L337.98,979.25 L278.23,1140.92 L242.24,1238.69 L249.84,1318.80 L321.94,1322.28 L366.86,1423.30 L386.75,1519.11 L448.51,1582.50 L515.56,1595.37 L572.91,1652.81 L536.73,1698.28 L463.67,1711.50 L454.96,1654.67 L364.64,1606.19 L345.40,1625.93 L301.67,1583.46 L282.74,1528.64 L223.92,1466.15 L170.30,1413.66 L152.13,1478.72 L131.14,1417.23 L143.22,1348.17 L175.81,1242.02 L229.44,1128.28 L290.23,1025.10 L246.96,924.16 L248.69,872.74 L236.04,810.95 L162.22,723.01 L135.80,667.48 L174.02,647.03 L214.52,550.81 L169.19,477.75 L98.94,396.94 L45.45,299.82 L92.15,279.71 L142.62,160.05 L220.76,155.09 L285.36,107.10 L348.75,81.50 L396.66,115.66 L403.02,182.17 L477.81,187.23 L450.57,303.86 L453.19,403.08 L569.86,337.04 L603.00,356.56 L667.83,353.36 L690.13,314.85 L773.84,322.45 L858.02,412.34 L864.92,521.58 L954.55,618.05 L949.60,711.73 L913.56,761.62 L809.81,745.73 L666.69,766.88 L595.81,858.91 L622.03,992.58 Z" fill="rgba(255,255,255,0.06)" stroke="rgba(255,255,255,0.55)" stroke-width="1.5" stroke-linejoin="round"/>
</svg>